<svg version="1.0" width="584" height="161" viewBox="0 0 5840 1610" xmlns="http://www.w3.org/2000/svg">
  <g fill="#09d3ac">
    <path d="M 242 1367 L 0 1125 L 0 1069 C 0 1038 20 872 45 699 L 90 385 L 283 193 C 430 44 481 0 500 0 C 520 0 579 54 768 243 C 901 376 1010 492 1010 500 C 1010 508 946 579 868 657 L 725 800 L 918 993 C 1023 1099 1110 1191 1110 1198 C 1110 1211 518 1610 498 1610 C 491 1610 376 1501 242 1367 Z"/>
  </g>
  <g style="fill: rgb(31, 211, 174);" transform="matrix(1, 0, 0, 1, 1382.306152, 424.079865)"><path d="M 155.73 66.99 L 265.35 401.94 L 274.05 401.94 L 401.07 71.34 L 521.13 74.82 L 524.61 448.92 L 541.14 673.38 L 423.69 673.38 L 428.04 447.18 L 418.47 218.37 L 314.07 506.34 L 207.06 511.56 L 109.62 218.37 L 101.79 447.18 L 107.88 673.38 L 0 673.38 L 12.18 461.97 L 17.4 88.74 L 155.73 66.99 Z M 1732.17 615.96 L 1632.99 682.08 L 1469.43 441.09 L 1469.43 447.18 L 1479 651.63 L 1361.55 673.38 L 1371.99 461.97 L 1361.55 21.75 L 1480.74 0 L 1469.43 420.21 L 1643.43 229.68 L 1725.21 285.36 L 1572.96 428.04 L 1732.17 615.96 Z M 2992.8 264.48 L 2967.57 279.27 L 2991.06 154.86 Q 3020.219 139.159 3059.657 126.35 A 611.521 611.521 0 0 1 3072.84 122.235 A 400.638 400.638 0 0 1 3107.137 113.487 Q 3125.023 109.808 3141.007 108.543 A 205.736 205.736 0 0 1 3157.23 107.88 Q 3223.038 107.88 3265.765 137.85 A 143.801 143.801 0 0 1 3275.985 145.725 A 123.025 123.025 0 0 1 3320.459 235.627 A 166.638 166.638 0 0 1 3320.79 246.21 Q 3320.79 310.852 3268.722 379.578 A 458.433 458.433 0 0 1 3232.05 421.95 L 3080.67 578.55 L 3352.11 562.89 L 3337.32 678.6 L 3156.36 670.77 L 2951.04 676.86 L 2964.96 585.51 L 3147.66 374.97 Q 3194.608 322.06 3201.342 280.64 A 84.375 84.375 0 0 0 3202.47 267.09 A 56.695 56.695 0 0 0 3198.83 245.918 Q 3187.796 218.37 3143.31 218.37 A 206.39 206.39 0 0 0 3105.235 222.117 Q 3084.974 225.923 3062.835 233.595 A 571.365 571.365 0 0 0 3034.737 244.114 Q 3009.928 254.203 2992.8 264.48 Z M 2496.9 73.08 L 2685.69 73.08 A 298.336 298.336 0 0 1 2738.998 77.552 Q 2768.348 82.888 2791.843 94.59 A 155.112 155.112 0 0 1 2817.93 110.925 A 120.144 120.144 0 0 1 2866.025 198.22 A 154.989 154.989 0 0 1 2866.65 212.28 A 191.514 191.514 0 0 1 2858.896 268.574 A 136.675 136.675 0 0 1 2783.13 354.09 Q 2892.357 391.899 2896.097 491.378 A 189.82 189.82 0 0 1 2896.23 498.51 A 156.763 156.763 0 0 1 2843.343 617.614 A 218.928 218.928 0 0 1 2828.37 630.315 A 246.223 246.223 0 0 1 2721.474 677.283 A 341.844 341.844 0 0 1 2657.85 682.95 Q 2616.552 682.95 2544.146 677.34 A 4005.114 4005.114 0 0 1 2496.9 673.38 L 2507.34 461.97 L 2496.9 73.08 Z M 3444.33 73.08 L 3633.12 73.08 A 298.336 298.336 0 0 1 3686.428 77.552 Q 3715.778 82.888 3739.273 94.59 A 155.112 155.112 0 0 1 3765.36 110.925 A 120.144 120.144 0 0 1 3813.455 198.22 A 154.989 154.989 0 0 1 3814.08 212.28 A 191.514 191.514 0 0 1 3806.326 268.574 A 136.675 136.675 0 0 1 3730.56 354.09 Q 3839.787 391.899 3843.527 491.378 A 189.82 189.82 0 0 1 3843.66 498.51 A 156.763 156.763 0 0 1 3790.773 617.614 A 218.928 218.928 0 0 1 3775.8 630.315 A 246.223 246.223 0 0 1 3668.904 677.283 A 341.844 341.844 0 0 1 3605.28 682.95 Q 3563.982 682.95 3491.576 677.34 A 4005.114 4005.114 0 0 1 3444.33 673.38 L 3454.77 461.97 L 3444.33 73.08 Z M 787.35 416.73 L 846.51 416.73 L 846.51 401.94 Q 846.51 359.31 829.11 343.65 A 46.047 46.047 0 0 0 815.261 335.392 Q 796.757 327.99 763.86 327.99 A 120.95 120.95 0 0 0 746.741 329.302 Q 732.931 331.283 716.445 336.255 A 291.723 291.723 0 0 0 691.217 345.235 Q 678.451 350.408 664.524 357.207 A 534.01 534.01 0 0 0 655.11 361.92 L 629.88 293.19 Q 664.915 268.747 714.067 248.882 A 602.541 602.541 0 0 1 720.795 246.21 A 422.59 422.59 0 0 1 752.409 235.199 Q 784.07 225.663 807.476 225.341 A 118.19 118.19 0 0 1 809.1 225.33 A 203.882 203.882 0 0 1 862.322 231.658 Q 923.22 248.166 939.634 307.742 A 187.837 187.837 0 0 1 945.69 357.57 L 945.69 528.09 A 185.992 185.992 0 0 0 951.518 572.885 Q 956.612 593.403 966.156 615.575 A 373.518 373.518 0 0 0 976.14 636.84 L 883.92 675.99 Q 866.206 641.978 855.994 613.738 A 323.118 323.118 0 0 1 851.73 601.17 Q 803.88 673.38 730.8 673.38 A 131.761 131.761 0 0 1 690.819 667.573 A 107.143 107.143 0 0 1 646.845 640.755 A 108.731 108.731 0 0 1 617.095 583.693 A 157.304 157.304 0 0 1 614.22 552.885 A 112.243 112.243 0 0 1 644.865 475.763 A 167.352 167.352 0 0 1 664.68 457.185 A 183.353 183.353 0 0 1 762.636 417.98 A 238.884 238.884 0 0 1 787.35 416.73 Z M 2034.06 545.49 L 2049.72 532.44 L 2089.74 581.16 Q 2083.827 591.213 2073.492 603.275 A 297.733 297.733 0 0 1 2062.77 615.09 A 292.442 292.442 0 0 1 2040.921 635.825 A 237.915 237.915 0 0 1 2025.795 647.715 A 143.473 143.473 0 0 1 2008.679 658.192 Q 1999.882 662.82 1989.396 667.086 A 295.169 295.169 0 0 1 1976.205 672.075 Q 1945.32 682.95 1912.26 682.95 A 150.431 150.431 0 0 1 1850.568 670.598 A 145.489 145.489 0 0 1 1797.42 629.445 A 188.165 188.165 0 0 1 1758.293 545.919 A 268.337 268.337 0 0 1 1753.05 491.55 Q 1753.05 385.41 1814.82 305.37 A 247.417 247.417 0 0 1 1857.337 261.672 A 161.066 161.066 0 0 1 1959.24 225.33 Q 2022.75 225.33 2057.985 261 Q 2093.22 296.67 2093.22 361.05 A 269.248 269.248 0 0 1 2090.722 396.543 Q 2087.511 420.645 2080.17 448.05 L 2062.77 466.32 L 1845.27 486.33 A 191.816 191.816 0 0 0 1854.962 525.235 Q 1876.282 581.932 1932.08 584.517 A 116.9 116.9 0 0 0 1937.49 584.64 A 109.96 109.96 0 0 0 1966.7 580.511 A 150.048 150.048 0 0 0 1990.56 571.59 A 302.377 302.377 0 0 0 2008.261 562.618 Q 2016.75 557.935 2023.67 553.251 A 130.417 130.417 0 0 0 2034.06 545.49 Z M 2152.38 252.3 L 2202.84 252.3 L 2202.84 157.47 L 2320.29 134.85 L 2308.98 252.3 L 2414.25 252.3 L 2404.68 323.64 L 2305.5 323.64 L 2301.15 505.47 Q 2301.15 543.989 2308.098 558.189 A 26.447 26.447 0 0 0 2308.98 559.845 A 25.422 25.422 0 0 0 2324.305 571.569 Q 2328.959 572.972 2334.695 573.257 A 60.367 60.367 0 0 0 2337.69 573.33 A 123.238 123.238 0 0 0 2352.099 572.395 Q 2369.445 570.339 2393.37 563.76 L 2398.59 625.53 Q 2346.593 668.861 2306.011 672.953 A 83.102 83.102 0 0 1 2297.67 673.38 A 96.949 96.949 0 0 1 2259.766 666.168 A 91.201 91.201 0 0 1 2226.33 641.625 A 109.309 109.309 0 0 1 2201.78 591.516 A 157.057 157.057 0 0 1 2198.49 558.54 L 2203.71 461.1 L 2202.84 323.64 L 2142.81 323.64 L 2152.38 252.3 Z M 1042.26 253.17 L 1147.53 230.55 A 1869.814 1869.814 0 0 1 1155.278 311.569 A 1571.262 1571.262 0 0 1 1157.97 357.57 Q 1214.036 270.698 1265.303 245.347 A 93.051 93.051 0 0 1 1306.74 234.9 L 1297.17 370.62 Q 1248.15 370.62 1219.246 379.241 A 126.711 126.711 0 0 0 1217.565 379.755 A 133.239 133.239 0 0 0 1189.984 392.221 Q 1174.161 401.519 1157.97 415.86 L 1157.97 447.18 L 1167.54 651.63 L 1050.96 673.38 L 1061.4 461.97 A 1810.455 1810.455 0 0 0 1055.171 354.748 Q 1050.335 300.721 1042.26 253.17 Z M 2674.38 414.99 L 2603.91 414.99 L 2603.04 447.18 L 2609.13 588.99 Q 2650.72 592.575 2676.353 593.206 A 416.853 416.853 0 0 0 2686.56 593.34 Q 2721.052 593.34 2744.104 580.439 A 78.797 78.797 0 0 0 2758.335 570.285 A 73.902 73.902 0 0 0 2780.239 533.707 Q 2784 519.845 2784 502.86 A 119.54 119.54 0 0 0 2781.451 477.338 Q 2777.949 461.322 2769.636 449.477 A 65.48 65.48 0 0 0 2757.9 436.74 A 78.311 78.311 0 0 0 2734.216 423.593 Q 2712.116 415.579 2679.268 415.03 A 292.646 292.646 0 0 0 2674.38 414.99 Z M 3621.81 414.99 L 3551.34 414.99 L 3550.47 447.18 L 3556.56 588.99 Q 3598.15 592.575 3623.783 593.206 A 416.853 416.853 0 0 0 3633.99 593.34 Q 3668.482 593.34 3691.534 580.439 A 78.797 78.797 0 0 0 3705.765 570.285 A 73.902 73.902 0 0 0 3727.669 533.707 Q 3731.43 519.845 3731.43 502.86 A 119.54 119.54 0 0 0 3728.881 477.338 Q 3725.379 461.322 3717.066 449.477 A 65.48 65.48 0 0 0 3705.33 436.74 A 78.311 78.311 0 0 0 3681.646 423.593 Q 3659.546 415.579 3626.698 415.03 A 292.646 292.646 0 0 0 3621.81 414.99 Z M 2654.37 160.95 L 2611.74 160.95 L 2606.52 330.6 L 2663.07 330.6 A 131.449 131.449 0 0 0 2689.793 328.055 Q 2705.809 324.727 2718.028 317.049 A 70.799 70.799 0 0 0 2730.93 306.675 A 77.529 77.529 0 0 0 2749.924 273.29 Q 2753.436 261.182 2754.205 246.685 A 156.942 156.942 0 0 0 2754.42 238.38 A 84.304 84.304 0 0 0 2747.77 203.602 Q 2731.563 167.493 2675.856 161.954 A 217.524 217.524 0 0 0 2654.37 160.95 Z M 3601.8 160.95 L 3559.17 160.95 L 3553.95 330.6 L 3610.5 330.6 A 131.449 131.449 0 0 0 3637.223 328.055 Q 3653.239 324.727 3665.458 317.049 A 70.799 70.799 0 0 0 3678.36 306.675 A 77.529 77.529 0 0 0 3697.354 273.29 Q 3700.866 261.182 3701.635 246.685 A 156.942 156.942 0 0 0 3701.85 238.38 A 84.304 84.304 0 0 0 3695.2 203.602 Q 3678.993 167.493 3623.286 161.954 A 217.524 217.524 0 0 0 3601.8 160.95 Z M 1842.66 424.56 L 1990.56 406.29 Q 1992.314 392.846 1992.889 382.543 A 167.825 167.825 0 0 0 1993.17 373.23 Q 1993.17 323.228 1952.199 316.119 A 86.137 86.137 0 0 0 1937.49 314.94 A 79.971 79.971 0 0 0 1877.686 340.745 A 106.512 106.512 0 0 0 1873.11 345.825 A 126.215 126.215 0 0 0 1847.946 394.655 A 171.871 171.871 0 0 0 1842.66 424.56 Z M 846.51 548.97 L 846.51 490.68 Q 800.4 480.24 771.69 480.24 Q 716.88 480.24 716.88 528.96 A 74.231 74.231 0 0 0 718.797 546.308 A 51.345 51.345 0 0 0 730.8 569.415 Q 744.72 584.64 767.34 584.64 A 83.834 83.834 0 0 0 795.386 579.413 Q 817.642 571.512 843.101 551.669 A 288.392 288.392 0 0 0 846.51 548.97 Z" vector-effect="non-scaling-stroke" x="1431.44" y="1114.56"/></g>
</svg>